<?xml version="1.0" standalone="no"?>
<!DOCTYPE svg PUBLIC "-//W3C//DTD SVG 20010904//EN"
 "http://www.w3.org/TR/2001/REC-SVG-20010904/DTD/svg10.dtd">
<svg version="1.0" xmlns="http://www.w3.org/2000/svg"
 width="1251.000000pt" height="1251.000000pt" viewBox="0 0 1251.000000 1251.000000"
 preserveAspectRatio="xMidYMid meet">
<metadata>
Created by potrace 1.11, written by Peter Selinger 2001-2013
</metadata>
<g transform="translate(0.000000,1251.000000) scale(0.100000,-0.100000)"
fill="#000000" stroke="none">
<path d="M6780 10994 c-19 -2 -91 -9 -160 -14 -1359 -115 -2512 -782 -3223
-1866 -432 -658 -683 -1409 -758 -2269 -15 -178 -16 -638 0 -820 140 -1644
1000 -3003 2321 -3670 536 -270 1089 -421 1750 -476 185 -15 694 -15 870 0
799 69 1355 267 1941 691 72 52 140 107 151 123 25 35 34 104 20 147 -19 52
-731 1029 -763 1045 -34 18 -102 19 -132 3 -12 -6 -46 -31 -75 -54 -139 -113
-349 -230 -546 -304 -185 -70 -403 -119 -661 -151 -155 -20 -591 -17 -760 5
-550 69 -992 243 -1395 547 -646 488 -1064 1296 -1141 2206 -15 182 -7 585 16
748 143 1048 703 1892 1532 2309 613 307 1396 395 2044 227 284 -73 607 -217
844 -377 72 -48 145 -91 164 -96 47 -14 99 3 137 44 37 40 680 954 711 1012
28 52 30 120 4 162 -20 34 -79 69 -336 206 -647 345 -1272 553 -1839 613 -131
13 -602 19 -716 9z"/>
<path d="M6997 7413 c-191 -178 -920 -910 -928 -931 -15 -38 -10 -115 9 -143
9 -15 233 -240 498 -502 525 -519 515 -511 603 -487 38 10 101 68 523 483 264
260 489 487 501 506 26 44 27 119 1 159 -30 46 -955 957 -991 975 -18 10 -55
17 -83 17 -50 0 -53 -2 -133 -77z"/>
</g>
</svg>
